<svg width="46" height="67" viewBox="0 0 46 67" fill="none" xmlns="http://www.w3.org/2000/svg">
<g clip-path="url(#clip0_57_2249)">
<path d="M46 11.0916C46 14.2385 44.6931 17.0587 42.5951 19.0707L42.2512 19.3802L36.5593 24.6422C35.5619 25.5708 33.997 25.5364 33.034 24.5735C32.0194 23.5589 32.0366 21.8908 33.1028 20.9107L38.9323 15.511L39.0355 15.4079C40.2049 14.2901 40.9099 12.7252 40.8927 10.9884C40.8583 7.68673 38.0897 5.0729 34.788 5.0729H11.1948C7.89308 5.0729 5.12449 7.68673 5.09009 10.9884C5.0729 12.7252 5.79514 14.3073 6.94729 15.4079L7.05047 15.511L12.88 20.9107C13.9462 21.8908 13.9634 23.5589 12.9488 24.5735C11.9858 25.5364 10.4209 25.5708 9.42355 24.6422L3.6972 19.3458L3.42206 19.105H3.40486C1.32411 17.0759 0 14.2385 0 11.0916C0 10.4209 0.0515888 9.78467 0.171963 9.14841C0.429907 7.66953 0.980187 6.29383 1.77121 5.0729C3.74879 2.01196 7.18804 0 11.0916 0H34.9084C38.812 0 42.2512 2.01196 44.2288 5.0729C45.0198 6.29383 45.5701 7.66953 45.828 9.14841C45.9312 9.76748 46 10.4209 46 11.0916Z" fill="#1999D6"/>
<path d="M0 55.8722C0 52.7253 1.30692 49.9051 3.40486 47.8932L3.74879 47.5836L9.42355 42.3044C10.4209 41.3758 11.9858 41.4102 12.9488 42.3732C13.9634 43.3878 13.9462 45.0558 12.88 46.036L7.05047 51.4356L6.94729 51.5388C5.77794 52.6565 5.0729 54.2214 5.09009 55.9582C5.12449 59.2599 7.89308 61.8737 11.1948 61.8737H34.788C38.0897 61.8737 40.8583 59.2599 40.8927 55.9582C40.9099 54.2214 40.1877 52.6393 39.0355 51.5388L38.9323 51.4356L33.1028 46.036C32.0366 45.0558 32.0194 43.3878 33.034 42.3732C33.997 41.4102 35.5619 41.3758 36.5593 42.3044L42.2856 47.6008L42.5607 47.8416H42.5779C44.6931 49.8535 46 52.7081 46 55.855C46 56.5257 45.9484 57.162 45.828 57.7982C45.5701 59.2771 45.0198 60.6528 44.2288 61.8737C42.2512 64.9175 38.812 66.9466 34.9084 66.9466H11.0916C7.18804 66.9466 3.74879 64.9347 1.77121 61.8737C0.980187 60.6528 0.429907 59.2771 0.171963 57.7982C0.0515888 57.1792 0 56.5257 0 55.8722Z" fill="#5C429A"/>
<path d="M28.3396 30.4887C29.4032 30.4887 30.2655 29.6264 30.2655 28.5627C30.2655 27.499 29.4032 26.6367 28.3396 26.6367C27.2759 26.6367 26.4136 27.499 26.4136 28.5627C26.4136 29.6264 27.2759 30.4887 28.3396 30.4887Z" fill="#1999D6"/>
<path d="M16.6115 41.1684C17.6752 41.1684 18.5375 40.3061 18.5375 39.2424C18.5375 38.1787 17.6752 37.3164 16.6115 37.3164C15.5478 37.3164 14.6855 38.1787 14.6855 39.2424C14.6855 40.3061 15.5478 41.1684 16.6115 41.1684Z" fill="#5C429A"/>
<path d="M22.493 35.2017C23.2147 35.2017 23.7999 34.6166 23.7999 33.8948C23.7999 33.173 23.2147 32.5879 22.493 32.5879C21.7712 32.5879 21.186 33.173 21.186 33.8948C21.186 34.6166 21.7712 35.2017 22.493 35.2017Z" fill="#1999D6"/>
</g>
<defs>
<clipPath id="clip0_57_2249">
<rect width="46" height="66.945" fill="white"/>
</clipPath>
</defs>
</svg>
